# xmcd
#
# Track frame offsets: 
#        150
#        19774
#        41203
#        55318
#        72343
#        88957
#        106312
#        121660
#        142833
#        160703
#        174305
#        187709
#        201023
#        218987
#        234464
#
# Disc length: 3373 seconds
#
# Revision: 1
# Processed by: cddbd v1.5.2PL0 Copyright (c) Steve Scherf et al.
# Submitted via: ExactAudioCopy v1.0b3
#
DISCID=c70d2b0f
DTITLE=Branigan, Martin - The Answer
DYEAR=1900
DGENRE=Celtic
TTITLE0=Working Man
TTITLE1=Fields Of Athenry
TTITLE2=I Believe In Ireland
TTITLE3=Spancil Hill
TTITLE4=Before The Next Teardrop Falls
TTITLE5=I Wouldn't Have Missed It For The World
TTITLE6=Answer To Everything
TTITLE7=I Should Have Been True
TTITLE8=All You Ever Do Is Bring Me Down
TTITLE9=Don't You Ever Get Tired Of Hurting Me
TTITLE10=Good Looking Woman
TTITLE11=Make Me An Island
TTITLE12=Wind Beneath My Wings
TTITLE13=Almost Like A Song
TTITLE14=Cotton Eyed Joe - Orange Blossom Special
EXTD=
EXTT0=
EXTT1=
EXTT2=
EXTT3=
EXTT4=
EXTT5=
EXTT6=
EXTT7=
EXTT8=
EXTT9=
EXTT10=
EXTT11=
EXTT12=
EXTT13=
EXTT14=
PLAYORDER=
